<?xml version="1.0" encoding="UTF-8"?>
<svg xmlns="http://www.w3.org/2000/svg" viewBox="0 0 1200 750" role="img" aria-label="Calendrier des stages : grille de dates et gant posé dessus">
  <defs>
    <linearGradient id="bg" x1="0" y1="0" x2="0.25" y2="1">
      <stop offset="0" stop-color="#0B0E14"/>
      <stop offset="1" stop-color="#151A24"/>
    </linearGradient>
    <radialGradient id="vig" cx="0.5" cy="0.44" r="0.8">
      <stop offset="0.55" stop-color="#05070B" stop-opacity="0"/>
      <stop offset="1" stop-color="#05070B" stop-opacity="0.82"/>
    </radialGradient>
    <linearGradient id="cone" x1="0" y1="0" x2="0" y2="1">
      <stop offset="0" stop-color="#F6F0DA" stop-opacity="0.42"/>
      <stop offset="0.75" stop-color="#F6F0DA" stop-opacity="0.05"/>
      <stop offset="1" stop-color="#F6F0DA" stop-opacity="0"/>
    </linearGradient>
    <radialGradient id="glowOr"><stop offset="0" stop-color="#E4CE7E" stop-opacity="0.5"/><stop offset="1" stop-color="#E4CE7E" stop-opacity="0"/></radialGradient>
    <radialGradient id="glowBleu"><stop offset="0" stop-color="#2159D8" stop-opacity="0.55"/><stop offset="1" stop-color="#2159D8" stop-opacity="0"/></radialGradient>
    <radialGradient id="glowRouge"><stop offset="0" stop-color="#D7263D" stop-opacity="0.5"/><stop offset="1" stop-color="#D7263D" stop-opacity="0"/></radialGradient>
    <radialGradient id="glowCraie"><stop offset="0" stop-color="#F6F0DA" stop-opacity="0.4"/><stop offset="1" stop-color="#F6F0DA" stop-opacity="0"/></radialGradient>
    <filter id="grain" x="0" y="0" width="100%" height="100%">
      <feTurbulence type="fractalNoise" baseFrequency="0.9" numOctaves="2" stitchTiles="stitch"/>
      <feColorMatrix type="matrix" values="0 0 0 0 0.92  0 0 0 0 0.90  0 0 0 0 0.84  0 0 0 0.06 0"/>
    </filter>
  </defs>
  <rect width="1200" height="750" fill="url(#bg)"/>

  <rect x="240" y="120" width="520" height="440" rx="18" fill="#0D1320" stroke="#E8E6DF" stroke-opacity="0.25" stroke-width="3"/>
  <rect x="240" y="120" width="520" height="86" rx="18" fill="#2159D8" opacity="0.85"/>
  <g fill="#E8E6DF" opacity="0.35"><rect x="290" y="240" width="52" height="44" rx="8"/><rect x="380" y="240" width="52" height="44" rx="8"/><rect x="470" y="240" width="52" height="44" rx="8"/><rect x="560" y="240" width="52" height="44" rx="8"/><rect x="650" y="240" width="52" height="44" rx="8"/><rect x="290" y="318" width="52" height="44" rx="8"/><rect x="380" y="318" width="52" height="44" rx="8"/><rect x="470" y="318" width="52" height="44" rx="8"/><rect x="560" y="318" width="52" height="44" rx="8"/><rect x="650" y="318" width="52" height="44" rx="8"/><rect x="290" y="396" width="52" height="44" rx="8"/><rect x="380" y="396" width="52" height="44" rx="8"/><rect x="470" y="396" width="52" height="44" rx="8"/><rect x="560" y="396" width="52" height="44" rx="8"/><rect x="650" y="396" width="52" height="44" rx="8"/><rect x="290" y="474" width="52" height="44" rx="8"/><rect x="380" y="474" width="52" height="44" rx="8"/><rect x="470" y="474" width="52" height="44" rx="8"/><rect x="560" y="474" width="52" height="44" rx="8"/><rect x="650" y="474" width="52" height="44" rx="8"/></g>
  <rect x="470" y="318" width="52" height="44" rx="8" fill="#D7263D"/>
  <rect x="560" y="318" width="52" height="44" rx="8" fill="#D7263D" opacity="0.75"/>
  <ellipse cx="880" cy="430" rx="260" ry="220" fill="url(#glowOr)" opacity="0.5"/>
  <g transform="translate(890 430) rotate(-14) scale(1.9)">
    <path d="M 22 -30 Q -16 -34 -34 -14 Q -48 2 -36 18 Q -24 32 2 32 L 22 32 Q 38 32 38 12 L 38 -12 Q 38 -28 22 -30 Z" fill="#D7263D"/>
    <ellipse cx="-26" cy="12" rx="12" ry="9" fill="#D7263D"/>
    <rect x="30" y="-18" width="20" height="50" rx="7" fill="#D7263D" opacity="0.8"/>
    <path d="M -26 -8 Q -6 -16 14 -10" stroke="#05070B" stroke-opacity="0.35" stroke-width="4" fill="none"/>
  </g>

  <rect width="1200" height="750" filter="url(#grain)" opacity="0.55"/>
  <rect width="1200" height="750" fill="url(#vig)"/>
  <text x="600" y="719" text-anchor="middle" font-family="Barlow, Segoe UI, Arial, sans-serif" font-size="24" letter-spacing="5" fill="#E8E6DF" fill-opacity="0.4">ACTUALITÉ · STAGES DES VACANCES</text>
</svg>
