<?xml version="1.0" encoding="UTF-8"?>
<svg xmlns="http://www.w3.org/2000/svg" viewBox="0 0 1200 900" role="img" aria-label="Un adulte transmet un gant de boxe à un enfant sous une lumière dorée">
  <defs>
    <linearGradient id="bg" x1="0" y1="0" x2="0.25" y2="1">
      <stop offset="0" stop-color="#0B0E14"/>
      <stop offset="1" stop-color="#151A24"/>
    </linearGradient>
    <radialGradient id="vig" cx="0.5" cy="0.44" r="0.8">
      <stop offset="0.55" stop-color="#05070B" stop-opacity="0"/>
      <stop offset="1" stop-color="#05070B" stop-opacity="0.82"/>
    </radialGradient>
    <linearGradient id="cone" x1="0" y1="0" x2="0" y2="1">
      <stop offset="0" stop-color="#F6F0DA" stop-opacity="0.42"/>
      <stop offset="0.75" stop-color="#F6F0DA" stop-opacity="0.05"/>
      <stop offset="1" stop-color="#F6F0DA" stop-opacity="0"/>
    </linearGradient>
    <radialGradient id="glowOr"><stop offset="0" stop-color="#E4CE7E" stop-opacity="0.5"/><stop offset="1" stop-color="#E4CE7E" stop-opacity="0"/></radialGradient>
    <radialGradient id="glowBleu"><stop offset="0" stop-color="#2159D8" stop-opacity="0.55"/><stop offset="1" stop-color="#2159D8" stop-opacity="0"/></radialGradient>
    <radialGradient id="glowRouge"><stop offset="0" stop-color="#D7263D" stop-opacity="0.5"/><stop offset="1" stop-color="#D7263D" stop-opacity="0"/></radialGradient>
    <radialGradient id="glowCraie"><stop offset="0" stop-color="#F6F0DA" stop-opacity="0.4"/><stop offset="1" stop-color="#F6F0DA" stop-opacity="0"/></radialGradient>
    <filter id="grain" x="0" y="0" width="100%" height="100%">
      <feTurbulence type="fractalNoise" baseFrequency="0.9" numOctaves="2" stitchTiles="stitch"/>
      <feColorMatrix type="matrix" values="0 0 0 0 0.92  0 0 0 0 0.90  0 0 0 0 0.84  0 0 0 0.06 0"/>
    </filter>
  </defs>
  <rect width="1200" height="900" fill="url(#bg)"/>

  <ellipse cx="600" cy="470" rx="460" ry="340" fill="url(#glowOr)" opacity="0.55"/>
  <path d="M 480 -20 L 720 -20 L 1080 760 L 120 760 Z" fill="url(#cone)" opacity="0.5"/>
  <g><circle cx="423" cy="278" r="1.8" fill="#E8E6DF" opacity="0.12"/><circle cx="746" cy="563" r="1.2" fill="#E8E6DF" opacity="0.32"/><circle cx="330" cy="247" r="2.9" fill="#E8E6DF" opacity="0.18"/><circle cx="504" cy="318" r="2.2" fill="#E8E6DF" opacity="0.29"/><circle cx="527" cy="379" r="2.6" fill="#E8E6DF" opacity="0.22"/><circle cx="346" cy="506" r="2.9" fill="#E8E6DF" opacity="0.11"/><circle cx="467" cy="203" r="2.4" fill="#E8E6DF" opacity="0.12"/><circle cx="506" cy="602" r="2.9" fill="#E8E6DF" opacity="0.32"/><circle cx="918" cy="164" r="1.9" fill="#E8E6DF" opacity="0.33"/><circle cx="282" cy="247" r="3.1" fill="#E8E6DF" opacity="0.15"/><circle cx="452" cy="576" r="2.8" fill="#E8E6DF" opacity="0.38"/><circle cx="753" cy="217" r="2.1" fill="#E8E6DF" opacity="0.28"/><circle cx="648" cy="346" r="1.6" fill="#E8E6DF" opacity="0.29"/><circle cx="570" cy="164" r="2.8" fill="#E8E6DF" opacity="0.14"/><circle cx="284" cy="486" r="2.0" fill="#E8E6DF" opacity="0.27"/><circle cx="450" cy="637" r="1.3" fill="#E8E6DF" opacity="0.15"/><circle cx="287" cy="398" r="1.7" fill="#E8E6DF" opacity="0.20"/><circle cx="758" cy="396" r="1.5" fill="#E8E6DF" opacity="0.26"/><circle cx="393" cy="449" r="1.9" fill="#E8E6DF" opacity="0.14"/><circle cx="306" cy="489" r="3.4" fill="#E8E6DF" opacity="0.11"/><circle cx="435" cy="324" r="2.9" fill="#E8E6DF" opacity="0.20"/><circle cx="477" cy="628" r="2.3" fill="#E8E6DF" opacity="0.31"/><circle cx="834" cy="157" r="2.6" fill="#E8E6DF" opacity="0.21"/><circle cx="371" cy="333" r="3.1" fill="#E8E6DF" opacity="0.25"/><circle cx="912" cy="447" r="3.2" fill="#E8E6DF" opacity="0.17"/><circle cx="673" cy="367" r="1.3" fill="#E8E6DF" opacity="0.31"/><circle cx="483" cy="258" r="2.3" fill="#E8E6DF" opacity="0.30"/><circle cx="585" cy="446" r="3.2" fill="#E8E6DF" opacity="0.29"/><circle cx="636" cy="189" r="2.9" fill="#E8E6DF" opacity="0.31"/><circle cx="760" cy="229" r="2.0" fill="#E8E6DF" opacity="0.21"/></g>
  <line x1="90" y1="760" x2="1110" y2="760" stroke="#E8E6DF" stroke-opacity="0.2" stroke-width="2"/>
  <circle cx="640" cy="560" r="86" fill="url(#glowOr)"/>
  <g transform="translate(430 760) scale(1.05 1.05)" opacity="1">
    <path d="M -16 -118 Q -26 -62 -38 -10" stroke="#04060B" stroke-width="30" stroke-linecap="round" fill="none"/><path d="M 20 -118 Q 34 -64 48 -10" stroke="#04060B" stroke-width="30" stroke-linecap="round" fill="none"/>
    <ellipse cx="-44" cy="-6" rx="17" ry="8" fill="#04060B"/><ellipse cx="56" cy="-6" rx="17" ry="8" fill="#04060B"/>
    <path d="M -36 -262 Q 4 -280 44 -258 L 50 -168 Q 44 -132 28 -110 L -26 -110 Q -44 -140 -46 -178 Z" fill="#04060B"/>
    <circle cx="6" cy="-292" r="27" fill="#04060B"/>
    <path d="M -28 -238 Q -6 -228 16 -240" stroke="#04060B" stroke-width="24" stroke-linecap="round" fill="none"/><path d="M 38 -240 Q 84 -226 116 -204" stroke="#04060B" stroke-width="24" stroke-linecap="round" fill="none"/><circle cx="126" cy="-198" r="21" fill="#D7263D"/><circle cx="22" cy="-244" r="16" fill="#D7263D"/>
  </g>
  <g transform="translate(820 760) scale(-1.15 1.15)" opacity="1">
    <path d="M -10 -66 Q -14 -36 -20 -6" stroke="#04060B" stroke-width="20" stroke-linecap="round" fill="none"/><path d="M 12 -66 Q 18 -36 24 -6" stroke="#04060B" stroke-width="20" stroke-linecap="round" fill="none"/>
    <path d="M -24 -152 Q 2 -164 28 -150 L 30 -92 Q 26 -72 16 -60 L -16 -60 Q -26 -76 -28 -98 Z" fill="#04060B"/>
    <circle cx="2" cy="-178" r="25" fill="#04060B"/>
    <path d="M 18 -140 Q 42 -158 58 -176" stroke="#04060B" stroke-width="16" stroke-linecap="round" fill="none"/><path d="M -18 -136 Q -4 -128 6 -134" stroke="#04060B" stroke-width="16" stroke-linecap="round" fill="none"/><circle cx="66" cy="-182" r="15" fill="#D7263D"/>
  </g>
  <g transform="translate(645 556) rotate(-12) scale(0.9)">
    <path d="M 22 -30 Q -16 -34 -34 -14 Q -48 2 -36 18 Q -24 32 2 32 L 22 32 Q 38 32 38 12 L 38 -12 Q 38 -28 22 -30 Z" fill="#D7263D"/>
    <ellipse cx="-26" cy="12" rx="12" ry="9" fill="#D7263D"/>
    <rect x="30" y="-18" width="20" height="50" rx="7" fill="#D7263D" opacity="0.8"/>
    <path d="M -26 -8 Q -6 -16 14 -10" stroke="#05070B" stroke-opacity="0.35" stroke-width="4" fill="none"/>
  </g>
  <path d="M 0 96 Q 600 103 1200 96" stroke="#E8E6DF" stroke-opacity="0.14" stroke-width="3" fill="none"/><path d="M 0 126 Q 600 133 1200 126" stroke="#E8E6DF" stroke-opacity="0.14" stroke-width="3" fill="none"/><path d="M 0 156 Q 600 163 1200 156" stroke="#E8E6DF" stroke-opacity="0.14" stroke-width="3" fill="none"/>

  <rect width="1200" height="900" filter="url(#grain)" opacity="0.55"/>
  <rect width="1200" height="900" fill="url(#vig)"/>
  <text x="600" y="869" text-anchor="middle" font-family="Barlow, Segoe UI, Arial, sans-serif" font-size="24" letter-spacing="5" fill="#E8E6DF" fill-opacity="0.4">LA TRANSMISSION, NOTRE MARQUE</text>
</svg>
